<svg id="Capa_1" data-name="Capa 1" xmlns="http://www.w3.org/2000/svg" viewBox="0 0 8028.15 16362.59"><defs><style>.cls-1{fill:#76037a;stroke:#76037a;stroke-miterlimit:5.03;stroke-width:0.05px;}</style></defs><g id="Capa_2" data-name="Capa 2"><g id="Capa_1-2" data-name="Capa 1-2"><path class="cls-1" d="M1,0C1,.09,14.21,1572.09,1,3207.16c-4.84,597.21,10.28,1194.68,11,1791.91.31,238.8-2.63,297.44-6.73,524.75v0C0,5634.75,1,5812.59,1,5813.11L6.26,7312.22c3.48,194.16,27.07,551.23,171.92,956.56,873.7,2444.89,4563.51,2179.68,5700,4300,347.34,648,595.49,1778.83-253.43,3793.75,533.38-332.37,1328.46-961.35,1842.13-2053.11,135.77-288.58,229.53-562,294.73-789.75,10-35,69.25-242.81,119.33-496,139.37-704.54,144-1435.87,144.6-1706,2.73-1128.37,4.1-1692.56,0-2002.73V0Z"/></g></g></svg>