<?xml version="1.0" encoding="UTF-8"?>
<svg id="Capa_1" data-name="Capa 1" xmlns="http://www.w3.org/2000/svg" viewBox="0 0 1874 1072">
  <defs>
    <style>
      .cls-1 {
        fill: #fff;
      }

      .cls-2 {
        fill: #76037a;
      }

      .cls-3 {
        opacity: .8;
      }
    </style>
  </defs>
  <path class="cls-2" d="m1256.18,0c-203.86,579.82,280.3,634.36,407.31,663.82s210.51,190.91,210.51,190.91c-232.85-226.91-599.73.04-599.73.04-732.62,488.77-1274.27,0-1274.27,0V0"/>
  <path class="cls-1" d="m111.45,714.82c-6.56,4.22-9.98,7.65-14.21,14.21-4.22-6.56-7.65-9.98-14.21-14.21,6.56-4.22,9.98-7.65,14.21-14.21,4.22,6.56,7.65,9.98,14.21,14.21Z"/>
  <path class="cls-1" d="m913.99,952.49c-3.84,2.47-5.85,4.48-8.32,8.32-2.47-3.84-4.48-5.85-8.32-8.32,3.84-2.47,5.85-4.48,8.32-8.32,2.47,3.84,4.48,5.85,8.32,8.32Z"/>
  <path class="cls-1" d="m882.49,599.01c-3.84,2.47-5.85,4.48-8.32,8.32-2.47-3.84-4.48-5.85-8.32-8.32,3.84-2.47,5.85-4.48,8.32-8.32,2.47,3.84,4.48,5.85,8.32,8.32Z"/>
  <path class="cls-1" d="m1036.84,78.89c-3.84,2.47-5.85,4.48-8.32,8.32-2.47-3.84-4.48-5.85-8.32-8.32,3.84-2.47,5.85-4.48,8.32-8.32,2.47,3.84,4.48,5.85,8.32,8.32Z"/>
  <path class="cls-1" d="m1108.12,241.33c-6.56,4.22-9.98,7.65-14.21,14.21-4.22-6.56-7.65-9.98-14.21-14.21,6.56-4.22,9.98-7.65,14.21-14.21,4.22,6.56,7.65,9.98,14.21,14.21Z"/>
  <path class="cls-1" d="m580.55,395.26c-3.84,2.47-5.85,4.48-8.32,8.32-2.47-3.84-4.48-5.85-8.32-8.32,3.84-2.47,5.85-4.48,8.32-8.32,2.47,3.84,4.48,5.85,8.32,8.32Z"/>
  <path class="cls-1" d="m120.9,94.78c-3.32,2.14-5.05,3.87-7.19,7.19-2.14-3.32-3.87-5.05-7.19-7.19,3.32-2.14,5.05-3.87,7.19-7.19,2.14,3.32,3.87,5.05,7.19,7.19Z"/>
  <path class="cls-1" d="m109.37,104.11c-5.6,3.61-8.52,6.53-12.13,12.13-3.61-5.6-6.53-8.52-12.13-12.13,5.6-3.61,8.52-6.53,12.13-12.13,3.61,5.6,6.53,8.52,12.13,12.13Z"/>
  <g class="cls-3">
    <path class="cls-1" d="m1379.1,702.02c-6.56,4.22-9.98,7.65-14.21,14.21-4.22-6.56-7.65-9.98-14.21-14.21,6.56-4.22,9.98-7.65,14.21-14.21,4.22,6.56,7.65,9.98,14.21,14.21Z"/>
  </g>
</svg>