<?xml version="1.0" encoding="UTF-8"?>
<svg id="Capa_2" data-name="Capa 2" xmlns="http://www.w3.org/2000/svg" viewBox="0 0 1967 1620.06">
  <defs>
    <style>
      .cls-1 {
        fill: #fff;
      }

      .cls-2 {
        fill: #0a4d68;
      }
    </style>
  </defs>
  <path class="cls-2" d="m134,404.81h968.75s-123.75,272,137.25,380,432.5,118.5,438.5,434.5c0,0-67.5-241.5-315.5-234.5-129.96,3.67-166,32-355.5,155.5-153.02,99.73-386.65,110.08-470.07,110.4-21.22.08-42.39-1.88-63.23-5.91-73.01-14.12-251.26-58.25-340.19-164.67V404.81Z"/>
  <path class="cls-1" d="m429.52,3c1.93,0,1.93-3,0-3s-1.93,3,0,3h0Z"/>
  <path class="cls-1" d="m201.22,985.31c-14.43-.39-14.11-.72-13.72,13.72.39-14.43.72-14.11-13.72-13.72,14.43.39,14.11.72,13.72-13.72-.39,14.43-.72,14.11,13.72,13.72Z"/>
  <path class="cls-1" d="m1361.22,850.31c-14.43-.39-14.11-.72-13.72,13.72.39-14.43.72-14.11-13.72-13.72,14.43.39,14.11.72,13.72-13.72-.39,14.43-.72,14.11,13.72,13.72Z"/>
  <path class="cls-1" d="m317.22,655.31c-14.43-.39-14.11-.72-13.72,13.72.39-14.43.72-14.11-13.72-13.72,14.43.39,14.11.72,13.72-13.72-.39,14.43-.72,14.11,13.72,13.72Z"/>
  <path class="cls-1" d="m336.99,644.31c-9.99-.27-9.77-.49-9.49,9.49.27-9.99.49-9.77-9.49-9.49,9.99.27,9.77.49,9.49-9.49-.27,9.99-.49,9.77,9.49,9.49Z"/>
  <path class="cls-1" d="m245.99,462.31c-9.99-.27-9.77-.49-9.49,9.49.27-9.99.49-9.77-9.49-9.49,9.99.27,9.77.49,9.49-9.49-.27,9.99-.49,9.77,9.49,9.49Z"/>
  <path class="cls-1" d="m836.22,906.31c-14.43-.39-14.11-.72-13.72,13.72.39-14.43.72-14.11-13.72-13.72,14.43.39,14.11.72,13.72-13.72-.39,14.43-.72,14.11,13.72,13.72Z"/>
  <path class="cls-1" d="m786.99,1187.31c-9.99-.27-9.77-.5-9.49,9.5.27-9.99.49-9.77-9.49-9.5,9.99.27,9.77.5,9.49-9.5-.27,9.99-.49,9.77,9.49,9.5Z"/>
  <path class="cls-1" d="m559.22,710.31c-14.43-.39-14.11-.72-13.72,13.72.39-14.43.72-14.11-13.72-13.72,14.43.39,14.11.72,13.72-13.72-.39,14.43-.72,14.11,13.72,13.72Z"/>
  <path class="cls-1" d="m1016.22,625.31c-14.43-.39-14.11-.72-13.72,13.72.39-14.43.72-14.11-13.72-13.72,14.43.39,14.11.72,13.72-13.72-.39,14.43-.72,14.11,13.72,13.72Z"/>
  <path class="cls-1" d="m915.55,508.81c-11.1-.3-10.85-.55-10.55,10.55.3-11.1.55-10.85-10.55-10.55,11.1.3,10.85.55,10.55-10.55-.3,11.1-.55,10.85,10.55,10.55Z"/>
</svg>