<?xml version="1.0" encoding="UTF-8"?>
<svg id="Capa_2" data-name="Capa 2" xmlns="http://www.w3.org/2000/svg" viewBox="0 0 2222.67 1667">
  <defs>
    <style>
      .cls-1 {
        fill: #fff;
      }

      .cls-2 {
        fill: #0a4d68;
      }
    </style>
  </defs>
  <path class="cls-2" d="m142,296h1109.73s-107.73,195,36.27,345c134.44,140.04,340.74,200.31,368,207,2.42.59,29.16,8.11,31.49,8.98,27.35,10.18,159.24,61.85,156.51,213.02,0,0-50.56-152.36-224-128-159.7,22.43-399.1,163.2-446.63,191.9-4.4,2.66-8.73,5.42-13,8.29-49.66,33.3-492.76,309.1-1018.37-71.81V296Z"/>
  <path class="cls-1" d="m233.2,959.5c-18.4,1.27-19.43,2.3-20.7,20.7-1.27-18.4-2.3-19.43-20.7-20.7,18.4-1.27,19.43-2.3,20.7-20.7,1.27,18.4,2.3,19.43,20.7,20.7Z"/>
  <path class="cls-1" d="m233.2,959.5c-18.4,1.27-19.43,2.3-20.7,20.7-1.27-18.4-2.3-19.43-20.7-20.7,18.4-1.27,19.43-2.3,20.7-20.7,1.27,18.4,2.3,19.43,20.7,20.7Z"/>
  <path class="cls-1" d="m516.2,931.5c-18.4,1.27-19.43,2.3-20.7,20.7-1.27-18.4-2.3-19.43-20.7-20.7,18.4-1.27,19.43-2.3,20.7-20.7,1.27,18.4,2.3,19.43,20.7,20.7Z"/>
  <path class="cls-1" d="m263.2,995.5c-10.4.72-10.98,1.3-11.7,11.7-.72-10.4-1.3-10.98-11.7-11.7,10.4-.72,10.98-1.3,11.7-11.7.72,10.4,1.3,10.98,11.7,11.7Z"/>
  <path class="cls-1" d="m353.2,585.5c-10.4.72-10.98,1.3-11.7,11.7-.72-10.4-1.3-10.98-11.7-11.7,10.4-.72,10.98-1.3,11.7-11.7.72,10.4,1.3,10.98,11.7,11.7Z"/>
  <path class="cls-1" d="m386.4,571c-12.8.88-13.52,1.6-14.4,14.4-.88-12.8-1.6-13.52-14.4-14.4,12.8-.88,13.52-1.6,14.4-14.4.88,12.8,1.6,13.52,14.4,14.4Z"/>
  <path class="cls-1" d="m1036.4,420c-12.8.88-13.52,1.6-14.4,14.4-.88-12.8-1.6-13.52-14.4-14.4,12.8-.88,13.52-1.6,14.4-14.4.88,12.8,1.6,13.52,14.4,14.4Z"/>
  <path class="cls-1" d="m1148.4,555c-12.8.88-13.52,1.6-14.4,14.4-.88-12.8-1.6-13.52-14.4-14.4,12.8-.88,13.52-1.6,14.4-14.4.88,12.8,1.6,13.52,14.4,14.4Z"/>
  <path class="cls-1" d="m621,643c-8,.55-8.45,1-9,9-.55-8-1-8.45-9-9,8-.55,8.45-1,9-9,.55,8,1,8.45,9,9Z"/>
  <path class="cls-1" d="m937,870c-8,.55-8.45,1-9,9-.55-8-1-8.45-9-9,8-.55,8.45-1,9-9,.55,8,1,8.45,9,9Z"/>
  <path class="cls-1" d="m890,1186c-8,.55-8.45,1-9,9-.55-8-1-8.45-9-9,8-.55,8.45-1,9-9,.55,8,1,8.45,9,9Z"/>
  <path class="cls-1" d="m984,721.5c-4,.28-4.22.5-4.5,4.5-.28-4-.5-4.22-4.5-4.5,4-.28,4.22-.5,4.5-4.5.28,4,.5,4.22,4.5,4.5Z"/>
  <path class="cls-1" d="m214.8,346c-9.6.66-10.14,1.2-10.8,10.8-.66-9.6-1.2-10.14-10.8-10.8,9.6-.66,10.14-1.2,10.8-10.8.66,9.6,1.2,10.14,10.8,10.8Z"/>
</svg>