<?xml version="1.0" encoding="UTF-8"?>
<svg id="Capa_1" data-name="Capa 1" xmlns="http://www.w3.org/2000/svg" viewBox="0 0 1460 2503">
  <defs>
    <style>
      .cls-1 {
        fill: #76037a;
        stroke: #76037a;
        stroke-miterlimit: 10;
      }
    </style>
  </defs>
  <path class="cls-1" d="m564.95,950.88h0c0,.05-43.24,229.32,49.85,325,7.78,7.99,17.93,16.52,19.17,17.56,62.03,51.91,101.8,41.77,125.39,76.44,16.01,23.53,13.7,51.01,9.97,82-5.2,43.17-23.16,76.82-38.88,99.24,24.94-13.9,54.3-36.81,87.32-65.49,43.66-37.93,87.32-86.24,87.32-127.74v-407h-340.13Z"/>
  <path class="cls-1" d="m42.29.5h0c0,.22-180.17,955.5,207.7,1354.17,32.4,33.3,74.72,68.84,79.88,73.16,258.48,216.31,424.16,174.04,522.46,318.51,66.71,98.04,57.09,212.53,41.54,341.67-21.66,179.87-96.5,320.09-162.01,413.5,103.91-57.94,226.26-153.37,363.81-272.9,181.91-158.06,363.81-359.35,363.81-532.27V.5H42.29Z"/>
</svg>