<?xml version="1.0" encoding="UTF-8"?>
<svg id="Capa_1" data-name="Capa 1" xmlns="http://www.w3.org/2000/svg" viewBox="0 0 1974 3346.05">
  <defs>
    <style>
      .cls-1 {
        fill: #fff;
      }

      .cls-2 {
        fill: #088395;
      }
    </style>
  </defs>
  <path class="cls-2" d="m1973.1,0c13.41,1093.53-125.16,1584.61-259.13,1829.77-150.72,275.82-334.17,310.89-509.58,770.93-102.72,269.41-152.35,552.56-178.06,745.34h.96c-27.87-192.73-81.67-475.81-193.02-745.14-190.14-459.92-389-494.98-552.39-770.72C136.65,1585.09-13.56,1094.14.98.91"/>
  <path class="cls-1" d="m668.78,90.55c-49.56,2.61-51.67,4.72-54.28,54.28-2.61-49.56-4.72-51.67-54.28-54.28,49.56-2.61,51.67-4.72,54.28-54.28,2.61,49.56,4.72,51.67,54.28,54.28Z"/>
  <path class="cls-1" d="m952.18,147.05c-24.36,1.33-25.4,2.4-26.68,27.6-1.28-25.2-2.32-26.27-26.68-27.6,24.36-1.33,25.4-2.4,26.68-27.6,1.28,25.2,2.32,26.27,26.68,27.6Z"/>
  <path class="cls-1" d="m582.44,410.05c-26.88,1.41-28.03,2.56-29.44,29.44-1.41-26.88-2.56-28.03-29.44-29.44,26.88-1.41,28.03-2.56,29.44-29.44,1.41,26.88,2.56,28.03,29.44,29.44Z"/>
  <path class="cls-1" d="m1505.78,425.55c-49.56,2.61-51.67,4.72-54.28,54.28-2.61-49.56-4.72-51.67-54.28-54.28,49.56-2.61,51.67-4.72,54.28-54.28,2.61,49.56,4.72,51.67,54.28,54.28Z"/>
  <path class="cls-1" d="m1417.78,107.55c-49.56,2.61-51.67,4.72-54.28,54.28-2.61-49.56-4.72-51.67-54.28-54.28,49.56-2.61,51.67-4.72,54.28-54.28,2.61,49.56,4.72,51.67,54.28,54.28Z"/>
  <path class="cls-1" d="m1168.06,372.55c-36.12,1.9-37.66,3.44-39.56,39.56-1.9-36.12-3.44-37.66-39.56-39.56,36.12-1.9,37.66-3.44,39.56-39.56,1.9,36.12,3.44,37.66,39.56,39.56Z"/>
  <path class="cls-1" d="m1057.78,971.55c-49.56,2.61-51.67,4.72-54.28,54.28-2.61-49.56-4.72-51.67-54.28-54.28,49.56-2.61,51.67-4.72,54.28-54.28,2.61,49.56,4.72,51.67,54.28,54.28Z"/>
  <path class="cls-1" d="m1354.54,716.55c-31.08,1.63-32.41,2.96-34.04,34.04-1.63-31.08-2.96-32.41-34.04-34.04,31.08-1.63,32.41-2.96,34.04-34.04,1.63,31.08,2.96,32.41,34.04,34.04Z"/>
  <path class="cls-1" d="m849.78,651.55c-49.56,2.61-51.67,4.72-54.28,54.28-2.61-49.56-4.72-51.67-54.28-54.28,49.56-2.61,51.67-4.72,54.28-54.28,2.61,49.56,4.72,51.67,54.28,54.28Z"/>
  <path class="cls-1" d="m1121.7,1160.55c-29.4,1.55-30.65,2.8-32.2,32.2-1.55-29.4-2.8-30.65-32.2-32.2,29.4-1.55,30.65-2.8,32.2-32.2,1.55,29.4,2.8,30.65,32.2,32.2Z"/>
  <path class="cls-1" d="m245.78,241.55c-49.56,2.61-51.67,4.72-54.28,54.28-2.61-49.56-4.72-51.67-54.28-54.28,49.56-2.61,51.67-4.72,54.28-54.28,2.61,49.56,4.72,51.67,54.28,54.28Z"/>
  <path class="cls-1" d="m431.78,716.55c-49.56,2.61-51.67,4.72-54.28,54.28-2.61-49.56-4.72-51.67-54.28-54.28,49.56-2.61,51.67-4.72,54.28-54.28,2.61,49.56,4.72,51.67,54.28,54.28Z"/>
  <path class="cls-1" d="m791.78,1160.55c-49.56,2.61-51.67,4.72-54.28,54.28-2.61-49.56-4.72-51.67-54.28-54.28,49.56-2.61,51.67-4.72,54.28-54.28,2.61,49.56,4.72,51.67,54.28,54.28Z"/>
  <path class="cls-1" d="m1504.54,923.55c-31.08,1.63-32.41,2.96-34.04,34.04-1.63-31.08-2.96-32.41-34.04-34.04,31.08-1.63,32.41-2.96,34.04-34.04,1.63,31.08,2.96,32.41,34.04,34.04Z"/>
  <path class="cls-1" d="m1780.86,656.55c-69.72,3.67-72.69,6.64-76.36,76.36-3.67-69.72-6.64-72.69-76.36-76.36,69.72-3.67,72.69-6.64,76.36-76.36,3.67,69.72,6.64,72.69,76.36,76.36Z"/>
  <path class="cls-1" d="m1745.64,216.05c-35.28,1.86-36.78,3.36-38.64,38.64-1.86-35.28-3.36-36.78-38.64-38.64,35.28-1.86,36.78-3.36,38.64-38.64,1.86,35.28,3.36,36.78,38.64,38.64Z"/>
  <path class="cls-1" d="m1131.38,1877.55c-74.76,3.93-77.95,7.12-81.88,81.88-3.93-74.76-7.12-77.95-81.88-81.88,74.76-3.93,77.95-7.12,81.88-81.88,3.93,74.76,7.12,77.95,81.88,81.88Z"/>
  <path class="cls-1" d="m342.96,1045.55c-73.92,3.93-77.07,7.12-80.96,81.88-3.89-74.76-7.04-77.95-80.96-81.88,73.92-3.93,77.07-7.12,80.96-81.88,3.89,74.76,7.04,77.95,80.96,81.88Z"/>
  <path class="cls-1" d="m1469.48,1294.55c-36.96,1.99-38.54,3.6-40.48,41.4-1.94-37.8-3.52-39.41-40.48-41.4,36.96-1.99,38.54-3.6,40.48-41.4,1.94,37.8,3.52,39.41,40.48,41.4Z"/>
  <path class="cls-1" d="m1246.48,1581.55c-36.96,1.99-38.54,3.6-40.48,41.4-1.94-37.8-3.52-39.41-40.48-41.4,36.96-1.99,38.54-3.6,40.48-41.4,1.94,37.8,3.52,39.41,40.48,41.4Z"/>
  <path class="cls-1" d="m880.48,2073.55c-36.96,1.99-38.54,3.6-40.48,41.4-1.94-37.8-3.52-39.41-40.48-41.4,36.96-1.99,38.54-3.6,40.48-41.4,1.94,37.8,3.52,39.41,40.48,41.4Z"/>
  <path class="cls-1" d="m538.38,1558.55c-74.76,3.93-77.95,7.12-81.88,81.88-3.93-74.76-7.12-77.95-81.88-81.88,74.76-3.93,77.95-7.12,81.88-81.88,3.93,74.76,7.12,77.95,81.88,81.88Z"/>
  <path class="cls-1" d="m496.48,1261.55c-36.96,1.99-38.54,3.6-40.48,41.4-1.94-37.8-3.52-39.41-40.48-41.4,36.96-1.99,38.54-3.6,40.48-41.4,1.94,37.8,3.52,39.41,40.48,41.4Z"/>
  <path class="cls-1" d="m112.44,615.05c-26.88,1.41-28.03,2.56-29.44,29.44-1.41-26.88-2.56-28.03-29.44-29.44,26.88-1.41,28.03-2.56,29.44-29.44,1.41,26.88,2.56,28.03,29.44,29.44Z"/>
  <path class="cls-1" d="m1131.38,2287.55c-74.76,3.93-77.95,7.12-81.88,81.88-3.93-74.76-7.12-77.95-81.88-81.88,74.76-3.93,77.95-7.12,81.88-81.88,3.93,74.76,7.12,77.95,81.88,81.88Z"/>
  <path class="cls-1" d="m1013.48,2494.55c-36.96,1.99-38.54,3.6-40.48,41.4-1.94-37.8-3.52-39.41-40.48-41.4,36.96-1.99,38.54-3.6,40.48-41.4,1.94,37.8,3.52,39.41,40.48,41.4Z"/>
  <path class="cls-1" d="m1760.78,1083.55c-49.56,2.61-51.67,4.72-54.28,54.28-2.61-49.56-4.72-51.67-54.28-54.28,49.56-2.61,51.67-4.72,54.28-54.28,2.61,49.56,4.72,51.67,54.28,54.28Z"/>
  <path class="cls-1" d="m1596.38,1581.55c-74.76,3.93-77.95,7.12-81.88,81.88-3.93-74.76-7.12-77.95-81.88-81.88,74.76-3.93,77.95-7.12,81.88-81.88,3.93,74.76,7.12,77.95,81.88,81.88Z"/>
  <path class="cls-1" d="m1388.84,2163.05c-43.68,2.3-45.54,4.16-47.84,47.84-2.3-43.68-4.16-45.54-47.84-47.84,43.68-2.3,45.54-4.16,47.84-47.84,2.3,43.68,4.16,45.54,47.84,47.84Z"/>
  <path class="cls-1" d="m506.62,1879.55c-51.24,3.4-53.42,6.16-56.12,70.84-2.7-64.68-4.88-67.44-56.12-70.84,51.24-3.4,53.42-6.16,56.12-70.84,2.7,64.68,4.88,67.44,56.12,70.84Z"/>
  <path class="cls-1" d="m1142.38,2826.55c-74.76,3.93-77.95,7.12-81.88,81.88-3.93-74.76-7.12-77.95-81.88-81.88,74.76-3.93,77.95-7.12,81.88-81.88,3.93,74.76,7.12,77.95,81.88,81.88Z"/>
  <path class="cls-1" d="m1057.48,3088.05c-36.96,2.39-38.54,4.32-40.48,49.68-1.94-45.36-3.52-47.29-40.48-49.68,36.96-2.39,38.54-4.32,40.48-49.68,1.94,45.36,3.52,47.29,40.48,49.68Z"/>
  <path class="cls-1" d="m1655.38,1918.55c-74.76,3.93-77.95,7.12-81.88,81.88-3.93-74.76-7.12-77.95-81.88-81.88,74.76-3.93,77.95-7.12,81.88-81.88,3.93,74.76,7.12,77.95,81.88,81.88Z"/>
  <path class="cls-1" d="m1833.38,1433.55c-74.76,3.93-77.95,7.12-81.88,81.88-3.93-74.76-7.12-77.95-81.88-81.88,74.76-3.93,77.95-7.12,81.88-81.88,3.93,74.76,7.12,77.95,81.88,81.88Z"/>
</svg>