<?xml version="1.0" encoding="UTF-8"?>
<svg id="Capa_1" data-name="Capa 1" xmlns="http://www.w3.org/2000/svg" viewBox="0 0 1876.36 1072.67">
  <defs>
    <style>
      .cls-1 {
        fill: #fff;
      }

      .cls-2 {
        fill: #0a4d68;
        stroke: #000;
        stroke-miterlimit: 10;
      }
    </style>
  </defs>
  <path class="cls-2" d="m1256.68.17c-203.86,579.82,280.3,634.36,407.31,663.82s210.51,190.91,210.51,190.91c-232.85-226.91-599.73.04-599.73.04-732.62,488.77-1274.27,0-1274.27,0V.17"/>
  <path class="cls-1" d="m160.02,116.17c-47.04,2.47-49.05,4.48-51.52,51.52-2.47-47.04-4.48-49.05-51.52-51.52,47.04-2.47,49.05-4.48,51.52-51.52,2.47,47.04,4.48,49.05,51.52,51.52Z"/>
  <path class="cls-1" d="m296.12,875.67c-51.24,2.7-53.42,4.88-56.12,56.12-2.7-51.24-4.88-53.42-56.12-56.12,51.24-2.7,53.42-4.88,56.12-56.12,2.7,51.24,4.88,53.42,56.12,56.12Z"/>
  <path class="cls-1" d="m938.3,80.17c-33.6,1.77-35.03,3.2-36.8,36.8-1.77-33.6-3.2-35.03-36.8-36.8,33.6-1.77,35.03-3.2,36.8-36.8,1.77,33.6,3.2,35.03,36.8,36.8Z"/>
  <path class="cls-1" d="m1100.14,314.17c-35.28,1.86-36.78,3.36-38.64,38.64-1.86-35.28-3.36-36.78-38.64-38.64,35.28-1.86,36.78-3.36,38.64-38.64,1.86,35.28,3.36,36.78,38.64,38.64Z"/>
  <path class="cls-1" d="m1375.66,641.17c-40.32,2.12-42.04,3.84-44.16,44.16-2.12-40.32-3.84-42.04-44.16-44.16,40.32-2.12,42.04-3.84,44.16-44.16,2.12,40.32,3.84,42.04,44.16,44.16Z"/>
  <path class="cls-1" d="m344.26,321.17c-23.52,1.24-24.52,2.24-25.76,25.76-1.24-23.52-2.24-24.52-25.76-25.76,23.52-1.24,24.52-2.24,25.76-25.76,1.24,23.52,2.24,24.52,25.76,25.76Z"/>
  <path class="cls-1" d="m1001.02,770.17c-47.04,2.47-49.05,4.48-51.52,51.52-2.47-47.04-4.48-49.05-51.52-51.52,47.04-2.47,49.05-4.48,51.52-51.52,2.47,47.04,4.48,49.05,51.52,51.52Z"/>
  <path class="cls-1" d="m165.3,678.17c-33.6,1.77-35.03,3.2-36.8,36.8-1.77-33.6-3.2-35.03-36.8-36.8,33.6-1.77,35.03-3.2,36.8-36.8,1.77,33.6,3.2,35.03,36.8,36.8Z"/>
  <path class="cls-1" d="m478.26,986.17c-23.52,1.24-24.52,2.24-25.76,25.76-1.24-23.52-2.24-24.52-25.76-25.76,23.52-1.24,24.52-2.24,25.76-25.76,1.24,23.52,2.24,24.52,25.76,25.76Z"/>
  <path class="cls-1" d="m722.24,913.67c-39.48,2.08-41.16,3.76-43.24,43.24-2.08-39.48-3.76-41.16-43.24-43.24,39.48-2.08,41.16-3.76,43.24-43.24,2.08,39.48,3.76,41.16,43.24,43.24Z"/>
  <path class="cls-1" d="m1657.72,698.67c-34.44,1.81-35.91,3.28-37.72,37.72-1.81-34.44-3.28-35.91-37.72-37.72,34.44-1.81,35.91-3.28,37.72-37.72,1.81,34.44,3.28,35.91,37.72,37.72Z"/>
  <path class="cls-1" d="m106.26,437.17c-23.52,1.24-24.52,2.24-25.76,25.76-1.24-23.52-2.24-24.52-25.76-25.76,23.52-1.24,24.52-2.24,25.76-25.76,1.24,23.52,2.24,24.52,25.76,25.76Z"/>
  <path class="cls-1" d="m605.5,91.17c-42,2.21-43.79,4-46,46-2.21-42-4-43.79-46-46,42-2.21,43.79-4,46-46,2.21,42,4,43.79,46,46Z"/>
  <path class="cls-1" d="m907.26,972.17c-23.52,1.24-24.52,2.24-25.76,25.76-1.24-23.52-2.24-24.52-25.76-25.76,23.52-1.24,24.52-2.24,25.76-25.76,1.24,23.52,2.24,24.52,25.76,25.76Z"/>
  <path class="cls-1" d="m1236.26,812.17c-23.52,1.24-24.52,2.24-25.76,25.76-1.24-23.52-2.24-24.52-25.76-25.76,23.52-1.24,24.52-2.24,25.76-25.76,1.24,23.52,2.24,24.52,25.76,25.76Z"/>
  <path class="cls-1" d="m830.97,509.59c-23.52,1.24-24.52,2.24-25.76,25.76-1.24-23.52-2.24-24.52-25.76-25.76,23.52-1.24,24.52-2.24,25.76-25.76,1.24,23.52,2.24,24.52,25.76,25.76Z"/>
  <path class="cls-1" d="m1122.26,114.17c-23.52,1.24-24.52,2.24-25.76,25.76-1.24-23.52-2.24-24.52-25.76-25.76,23.52-1.24,24.52-2.24,25.76-25.76,1.24,23.52,2.24,24.52,25.76,25.76Z"/>
</svg>